<mxfile host="Electron" agent="Mozilla/5.0 (Windows NT 10.0; Win64; x64) AppleWebKit/537.36 (KHTML, like Gecko) draw.io/28.0.4 Chrome/138.0.7204.97 Electron/37.2.1 Safari/537.36" version="28.0.4">
  <diagram name="Page-1" id="abKdHEwvcT7BrlSaZbzw">
    <mxGraphModel dx="1426" dy="841" grid="1" gridSize="10" guides="1" tooltips="1" connect="1" arrows="1" fold="1" page="1" pageScale="1" pageWidth="850" pageHeight="1100" math="0" shadow="0">
      <root>
        <mxCell id="0" />
        <mxCell id="1" parent="0" />
        <mxCell id="g-WHrcYlsY0I_rbneyq0-1" value="&lt;div&gt;&lt;font style=&quot;font-size: 14px;&quot;&gt;&lt;b&gt;&lt;br&gt;&lt;/b&gt;&lt;/font&gt;&lt;/div&gt;&lt;font style=&quot;font-size: 14px;&quot;&gt;&lt;b&gt;Customer/Client&lt;/b&gt;&lt;/font&gt;&lt;div&gt;&lt;font style=&quot;font-size: 11px;&quot;&gt;Organizations consuming Solution&lt;/font&gt;&lt;br&gt;&lt;div&gt;&lt;br&gt;&lt;/div&gt;&lt;/div&gt;" style="rounded=1;whiteSpace=wrap;html=1;strokeWidth=2;strokeColor=light-dark(#CC0000,#CC0000);" vertex="1" parent="1">
          <mxGeometry x="160" y="140" width="150" height="70" as="geometry" />
        </mxCell>
        <mxCell id="g-WHrcYlsY0I_rbneyq0-2" value="&lt;div&gt;&lt;b style=&quot;font-size: 14px; background-color: transparent; color: light-dark(rgb(0, 0, 0), rgb(255, 255, 255));&quot;&gt;&lt;br&gt;&lt;/b&gt;&lt;/div&gt;&lt;div&gt;&lt;b style=&quot;font-size: 14px; background-color: transparent; color: light-dark(rgb(0, 0, 0), rgb(255, 255, 255));&quot;&gt;Technology Vendor&lt;/b&gt;&lt;/div&gt;&lt;div&gt;&lt;font style=&quot;font-size: 11px;&quot;&gt;Providers of Solution and Platform&lt;/font&gt;&lt;br&gt;&lt;div&gt;&lt;br&gt;&lt;/div&gt;&lt;/div&gt;" style="rounded=1;whiteSpace=wrap;html=1;strokeWidth=2;strokeColor=light-dark(#CC0000,#CC0000);" vertex="1" parent="1">
          <mxGeometry x="390" y="140" width="150" height="70" as="geometry" />
        </mxCell>
        <mxCell id="g-WHrcYlsY0I_rbneyq0-4" value="&lt;div&gt;&lt;font style=&quot;font-size: 14px;&quot;&gt;&lt;b&gt;&lt;br&gt;&lt;/b&gt;&lt;/font&gt;&lt;/div&gt;&lt;font style=&quot;font-size: 14px;&quot;&gt;&lt;b&gt;Consulting/Delivery Partner&lt;/b&gt;&lt;/font&gt;&lt;div&gt;&lt;font style=&quot;font-size: 11px;&quot;&gt;EO Sales Engineer&lt;/font&gt;&lt;/div&gt;&lt;div&gt;&lt;span style=&quot;font-size: 11px;&quot;&gt;EO Quarterback&lt;/span&gt;&lt;/div&gt;&lt;div&gt;&lt;span style=&quot;font-size: 11px;&quot;&gt;EO Delivery Engineer&lt;/span&gt;&lt;/div&gt;&lt;div&gt;&lt;span style=&quot;font-size: 11px;&quot;&gt;EO Project Manager&lt;br&gt;&lt;/span&gt;&lt;div&gt;&lt;br&gt;&lt;/div&gt;&lt;/div&gt;" style="rounded=1;whiteSpace=wrap;html=1;strokeWidth=2;strokeColor=light-dark(#CC0000,#CC0000);" vertex="1" parent="1">
          <mxGeometry x="160" y="390" width="150" height="110" as="geometry" />
        </mxCell>
        <mxCell id="g-WHrcYlsY0I_rbneyq0-5" value="&lt;div&gt;&lt;b style=&quot;background-color: transparent; color: light-dark(rgb(0, 0, 0), rgb(255, 255, 255)); font-size: 14px;&quot;&gt;Development Partner&lt;/b&gt;&lt;/div&gt;&lt;div&gt;&lt;font style=&quot;font-size: 11px;&quot;&gt;Delivery Extension as&amp;nbsp;&lt;/font&gt;&lt;/div&gt;&lt;div&gt;&lt;font style=&quot;font-size: 11px;&quot;&gt;needed&lt;/font&gt;&lt;br&gt;&lt;div&gt;&lt;br&gt;&lt;/div&gt;&lt;/div&gt;" style="rounded=1;whiteSpace=wrap;html=1;strokeWidth=2;strokeColor=light-dark(#CC0000,#CC0000);" vertex="1" parent="1">
          <mxGeometry x="390" y="390" width="150" height="80" as="geometry" />
        </mxCell>
        <mxCell id="g-WHrcYlsY0I_rbneyq0-7" value="&lt;div&gt;&lt;font style=&quot;font-size: 13px;&quot;&gt;&lt;br&gt;&lt;/font&gt;&lt;/div&gt;&lt;div&gt;&lt;font style=&quot;font-size: 13px;&quot;&gt;&lt;br&gt;&lt;/font&gt;&lt;/div&gt;&lt;div&gt;&lt;font style=&quot;font-size: 13px;&quot;&gt;&lt;br&gt;&lt;/font&gt;&lt;/div&gt;&lt;div&gt;&lt;font style=&quot;font-size: 13px;&quot;&gt;&lt;br&gt;&lt;/font&gt;&lt;/div&gt;&lt;div&gt;&lt;span style=&quot;background-color: transparent; color: light-dark(rgb(0, 0, 0), rgb(255, 255, 255));&quot;&gt;&lt;font style=&quot;font-size: 13px;&quot;&gt;EO Templates | EO Process | EO Automation&lt;/font&gt;&lt;/span&gt;&lt;/div&gt;&lt;div&gt;&lt;span style=&quot;background-color: transparent; color: light-dark(rgb(0, 0, 0), rgb(255, 255, 255));&quot;&gt;&lt;font style=&quot;font-size: 13px;&quot;&gt;Contributors, Mainteners, Reviewers&lt;/font&gt;&lt;/span&gt;&lt;/div&gt;" style="rounded=1;whiteSpace=wrap;html=1;strokeWidth=2;strokeColor=light-dark(#CC0000,#CC0000);" vertex="1" parent="1">
          <mxGeometry x="160" y="240" width="380" height="120" as="geometry" />
        </mxCell>
        <mxCell id="g-WHrcYlsY0I_rbneyq0-8" value="" style="shape=image;verticalLabelPosition=bottom;labelBackgroundColor=default;verticalAlign=top;aspect=fixed;imageAspect=0;image=data:image/png,iVBORw0KGgoAAAANSUhEUgAAAT8AAAA8CAYAAAAQRb2xAAAAAXNSR0IArs4c6QAAAARnQU1BAACxjwv8YQUAAAAJcEhZcwAADsMAAA7DAcdvqGQAAHUNSURBVHhenf13gF1F+T+Ov+acc+/eu71k03sjARIx9AQSOipFBEGaqFQBO0UCKk0QQpVQRBSlKxA6CPqWTgAhCekJadtSdrPZ3u6958zz/eN5Zs7cu+v7/fn9Bjb3nCnPPG2emXmmHEWaCAoAAALkkTgCykYSCIoUSBFAivMNKlfwTvKPMqkEKigLAJSfJX5Qcf1xomBITnRhWSnGIMgppYbAVjI6tJoHi4q8cxLjFae51UssSW7lIsplCmuGlBPoAiGur7BMfr0x3qQAZYkGQIrhGh5ygTgQTIEhsCIp48Q7j3k4kcGfcYhlqcCqIrTZQuaBfxkNAinFvzCExBUqYSMMLFM1MX0OJIPSIIpMsGRblJwXMB4mDGLXoHeSF5b1kHlI8iiRh+Q1GSx/nFBICauQ8MjywpX3EJXbINolhLN8BJc8XhqYRr/ddNOG8rAySfKkWO4CJ24LEj8UXRw9iGcmXUzNYLKMkrk0S14wmSZKsonNcvDgfESCfiEj8hukYQqIpJKhGycHywGLPBcvJDev1f4XSk0wTaxQoeTR4C15laPEcPgFQ62b7ACxYhYecDoX5AYqBQrgW0awploajRIoKJAgaHAr5J1ROMP/GI98HOMCDh4kmLuG2Yosv15bFIwrN46YQfwY4whT7WCEJdHWyDKSV9uEnDK2Ubm4mzRTroC1QxNvYBlQrvkrCIafrpGycXCMitNZDAnICS5Kkt8Wcxuiyza3PTiAjMwL6f5v/CDJnEexi/MQOm6Sbb3Wfgw2viaTgWFU2tBkyhZkz4OSby6deFvWZVo+A2NV5IcYlktFIWQJ+aDcKHmO8RLjVwgufiODnFjOfIUzlOcbLQZI8mbSpNezCJgqChhkqyZp0FKvGCAYZXEalVtE/ingkXDUxTOf4EERlgapJIY/2EZzSae81EXGgNk45OPgBIM6j1SZQmNI8nt9EpTcGlk+VjbGSCvJb/I6RmooJAwdtl4lI3Wu2PIirzE4jcjAZEPqFpGMgqPNZ3hp5AzuWAc3GQn5IspvSARbjxm9cZJFUJB1QFlj5EYa4A7IvGqFh8aQxiDFOIgMMJgO2/AIMoNiwDyjKqzD4Cx5wfny6AfTpxDHx2rOZZh86VDh6rOk50nDYVNePUxTXudhchc2BhOIGWz4MNgYCnEWEwHj6JnJZfhVSL9Nz3tzHyW/zZSfWxFp4ddgEHYInMdgUVQHjlFdU9aRK2AbhsHD/Cv5C4g1T6xUPAqxvaUIEtAc6bH2xQ0MLvZxveTUyNVb3ri4uMyJmS5JNs0Q51IsOQQo54pHEbZkHh22mMkdl7NCZtgx9ywG/GyQdGg1BeL6CrCUyuOy4PJm1GOy2Sd5kSRTv6vOrn7k0Wb4RxDDKwnkUGztkkDLa1z5wdRrCwlsAj/zjCCm1+ARZxUTK7plmGTKAyQsERiOGFieEmnKGlgOsiS/DgsYrtPIOUqm7IJcnN9tG/lpjIirGzEfXONCkm8QXqygtjNgHghHJcnouysuN4PFzhgkBwcTmAYnr42XOl2K8vjnUhEHpkdKSWZBtyCng4ozcLKVuDgD8chvkBSdwIxjBY6fjXDyOCRgDQpW3fLYUUC+EBKXJRjgAOVy0AMDoIEsdJiDJo2AAO358IsSUIkEVCoFL5nMV27mAMc4xNuKDfcMMYWhgFEcZd4LcXbAiZ6YsoXitO+FuDgoFLw6shtsGOHwk5y6TWShIgF5ReOoPP+ZyZKP+1Ahbk+FWGNIHE2sIcE2toL4Qn6YPIOC5bUJeZwbulSB8ZWooXIOoo8QGwZT5r+VNYFBCI7Gb241yeGLo4qFMI3s82cTcSbTwjQBuWwO2VwGIEApD4lkEslkIvatGsbnVWCsC+NofmJ3iCTFXHD+NZlttiHyGvzz8wzFt0LaXeMFOzP6L3ltYBoJJgPjaUuSa/xMGAJaFEVoa2sDgEG+tML3/y3U1NTESmcFIcTBYYwmRF2dyO3Zg95P/oOOPz+G/pYWhNua4EeECB4SaYVg7Gh4k8djxI8vR3qvGQiqq6DSxcyovFFPXCdHmfj4qdDMhWGI9vYOKM/LyxOX/n8ICqiurrH5wzBEb28vcmHu/zAp+cFTCql0Gul0egjxxIZOtDXOUZDZvPb09KK/v5/ZZHpEANU11fAKfGesHPncMQmkgGw2i+6uLqcuzhcEASorKjjv0OjkBaOEJj0KQ/T29SGbzTHvRf+TySRKSkvhe56FqLVGa2srlFKMp4fB+A4VCNyYSMH3PVRWVUIBGBjIoKenZ5Bul5eXI0gETgwbEsadO7RcmENvby/CMLS5kskilJSk4ftcdiieEhH6BwbQa+tVAIjpLSmB7/uScTAToyhCb28vuru70d3djaUff4x/vPEGuru6Max2GI772tdw8IEHoqKiAmVlZSguKeH6CYOsbV4HS0B3TzcymQxABOV5+RVbFg4eQCSTSRQXl8DzvUHDHThkEBF6e3vQ19cPOK6dZLII5eVl8DwPRteM0TZqHoYhunt7kMtmWfaCg9YaRUVFKC8vt3FGv/iFR/GKV3ul8RdqIJgZu3e34sQTT0AYhvC9ABDeKOXJaCG/F5WC8s5cVACWfryUo8QiM16G6wQNgHp60P/lZuy4+lr0fLYaCZ2CIg+KfNuwTTVEGhRphOiHX1uMmnNOQ9X5P0DRxPFQySKGa5iWNyLM1yG30+PGANTV1eHb3z4dvu/FcKTwUA1LbAgHAgCFIPDwwQcfcBQB7e3tuPiSi9HU1AilWKhc2BR0ggMsCAKcedaZWDB/ASZNnISS0hIHecaLlTAuPiRMAGEU4Xe3/g4vvfQSPN+D53nWn/rOO++gpDhdWKSAW3HQBKxbtw4XXnABG3SlWCdAqKmpwdNPPo3K6iouObj4oODW0ti0HRecfz46OjqgNYFIAwCmTZuKRx55BGVlpTZ3T28v5s2dB9/3oTwF3w/EEOZJWX5jPeV+nxtURXk53vrnWwCA//znP1i4cCF6+/o4v+R76cWXMGrUCMBCjvWYGCC21W3DJRf/EB0dHVIfMGHCBDz65z+hzHQGIixXj/r6+vDUE0/goT88DC/wocDGfd9998H99y9GcUkp5xYyCAQiQkdHJzZsWI+7774Ln332OZqatkOTFrrZIBARPA+YPm0avnnyyfje93+AcePHoqSYYYr4LWsM17TWeOjBh/D4E08gDHNIJJOSQjx4kRE0wDoopgsAMH78eFx22WWYPn06Ro0cCXiSbkbdorNhLoc77rgDzz77LJTymC5NOOTgg3Hf4vtQlEwCVr8ZMwKQC0N8uXEjLr/8crS1tyMR+GwolYdkMoGzzjoLl196GTw/NtiDbDRJ0Jr/3GBed+3cReXl5eR5PikvIHgBKc8neAlSvvlL8m+QIBUEpPyAvCBJKkiSFyQJAGmtGaYB7NSntabMjp20/brrad3wqbQqNYVWpfei1cUzaG3JDFqT3ovWFE+n1cV70eqSvfg9vRetTu9Fq9MzaFVyL1pZNJFWTp1Ne5a8RGFvbz5R5nGIugsjtNbU1LSdEokkwfNJ+QmCFxD8gOAnyHNo9vwEKeGHFzAPECTI85NUlEySJs10a007d+6k/fc/gFSC86iA4Rh48BOk/ICU7xNUQFA+QSnhtU/Dh4+gX19/Pe3atcvC1HpokoTTg+hsbm6hI486ivwgQV5gZJkgpXx67rkl+ZmHCIV1fL5sOZWUlpHnB0IL86msvJwee+xxirQmHcVI8g/jXRiYV0T9/QP0wAMPkRLeM3/59+CDD6HW1lamT5Spf2CAlPIYB6ujzEvmKcvPykr4DD9BSnmklE9jx4wRddHU0FBPs2fPjnXYDwhK0ccff0y5XI50QWMRNCgMQ1qyZAklk0WMr9Q7atQoqq9v4LxStJCP27dvp698ZT/yvIBxVD4p5dOSF1+iTCZDeaqrNeXCkNasWkPf+MYJVFlZRVCepYn/kgQ/Ke0yyfrrBeR5Ho0aNZruuutOqq+vF1oYZgFSRJGme++5l4qKUsK3mJ8qEL0NYtjwfNZVn3XX83zaf//96f3337c0u3SQJspms3TVVVeJ3ifIC1hGp556KvX19Vk+G3lrTRRFEW3dupUOPPAggtSnfG4jJaWl9NOf/Yz6+vviNjBE0EQkZpGHPgUjV9sveb7HQ1LlOYN1HntKRyQWn3sD7hiMI9zAkZ7I5nQCAbnG7Wj40c/RvvgZ6C4ACODJCFEMPndRpKA0AOj8uhXgeSl4jd1ouuQX2PPXJ6BluG6CnU38b8Fmlwcloz5P6GYUuIcCQRt4zvDazjwdhtpHnpU5RPEwflCvpBSgPED5/Atg9+5W3HXHnbjq6quxq7nZwlOwLIiLD3rgsGLFcqxZsxYEQGuwzOTf3//+HsuvQTIytDnPgLviruyfgkJPbz/uuvNO7NndyjyTcpy9YJZgA8Nr3dOK2xfd7vDUKGdcTlk3iYxuAOGXl78fDuDVXyV8lpmKXcVWnkMr86KysgrHHXccv5u9h1C45ZZbMDCQGYS7oIHe3l68/vobyOVkyisy3dncjPqGOpkKO5yVH0VA25427Ny1k4GJ7KuqKjFl0kQkk0lbFwBoIvzjjTdwxpln4I1/vIGOzk6ZlXgyYgQDJ4M/w+T2C+xqbsbChdfh9NNPx6ZNmyw95LZnwYOIdR9KgVzYMgIjzc8KDD+WE5ddvmIFTjvtNLz973+zQMgRjDNVsdNW5cHzDEJ53DJg0d7ejttuuw0rV66Ush4ADyXFxbjg/PPx25tvRqooFVfnwHJAGWrcAbgEKx9hiGUiJ5CBrDVIa56CEgE64imK/JGOoLWWYX4cFIiZTYTczp1ouuJqDPzPciD0oJUH8gCtRIBi7LTOgaIBkMoBOnKYycwDAHhFoN4AzdffhV2PPw5NkVMrB8sEl7Ns0eIGJdH2yTBPRyAdQWkCKBILYvCMoAzdYH64kCB80y6+YP6ZX+YhmH9gWIoISvmA76GvfwDPP78EN914Izo6OkUF8wNLanBKT08PXnn1FezZs8exvYKHUvjoo4+wra5ecrO8ChUm7zmvAmYm6wjH1Dc04NXXXovzm2yQKUwBggpAJpPBC88vQUNjY1xKEfPTLVBInMFAiT/ZemgJQCS6qGOdsYaNAbGc+N+S0lLsv//+KC0psdUoKKxfv4F9pUNUTwD27GnDe++9xzrk+JCU8nDbbbdjIDNQUIpDLgzR0NiI3a17Yi4qYMqUqRg+YoSDA6e99tpruOjii7Fu/QYo+KJLimmkiNuGjlg/oeVd2iS4g8hGEVasXIkzzzyTDaBThxv8BBtMDqzrpKWdmzooAhG3e9LEOgsAvg9AobWtHeecey4+/+wz1so83vATaZYE2xWRiXHrOszu7OzC7bffjqefeQa5MGKJ6QiJwMdpp52KG264AaUlpQAInpWq8RnmB6U18bYoafgmA5lCBLTsbsH0adPQ3ddvR3OJIMDkyZOQCFwHMAtHFXhboNg6r/ziC8lj0gi6pxu7716M1nv+CmR8liHAPUeoAGRB5QGK9pmIqq8dA6+kEpTtR9fSpehbsQ7R9k74KgEoIVVGZSBCVBJh+ut/Q/GBBzj4OaMHa+wK3gnYuXMHJk6ciJwWA0ZAMuFj5MgRSBYlrVFjObF0zCN3YAqpZBG+sL2Tws6du3DiiSdixcrVgoMCKMIp3/wmaoZVW7+J8Z11d3Xh888/Q31dPTK5CPBko7TWqK6qxLPPPosjjlgA3/fz6h4qEAEbv9yIE084EVu21cfCtdoHgCLcfNNN+NV118V7y2Ip2mw8suXR04ovVmD+/Pno688wbmDZQUaic+cejCVLlmDE8OF5cJCnB/F7a8tuzNl/fzTt2MkjDgHJciEcfMABeP3111BdXcMdKilkclmk02nA81m+UYR0OoXRo0ehpLjY4hXXx0Lmd6ajdlgN/v322xaXjV9uxIknnoQtW+tMdgQesHnzJowdOw6ex/5uEwjAfz79D4448khkMlnRQ8NbwtjRI7Fs+XLU1g5zcODQ2dmJc8/9Ll7/x5ucXRMAjTvuuAOXX3YZUukUAF6g2LatDkcddSTqGpvcpg3SEaqrqzFr1iwcffRRGDZsmKEOK1Z8gaUffYj1GzbwTMIQBELC97HgiAV44vEnMHzEcJvC7CY88MADuOqqq5DJRZZf5WVlOO3U0wBFCPwABMD3PYTZHFavXY2NGzaiq7sX2tgCBShNOPTQg/Hu228jSCSEd7ywuHDhtbjz7nukDXMdp3zzZDz11JMoKkpZfPoHBrD4vsX47S2/RW9fP4/axbAfcMD+eP755zFu/HhetCvYumVCrAMExDNg9iGZabL1L5Cm5uYWKq+oyPNn1dTU0MpVq6iuro621dVRfX091dXXU508x+/1VC9xUosA16R1RF1Ll9KasdNpdfFUWl08g9YUs59vdfE+tDo5jupOOYc6332fMju2k85mKIpC0pks5VpbqXfNOtq1+AFaPXEWrUxPpdXpGbQ6PZ1WpqfTquK9aFV6Kq094FDSYeg4W/K8DoyT48IxfqcdO3awz8/6OZJUWzuc3n//A9r45UbauHEjffnll7RhIz9v2LiBNmzcQOs38N/GjV/Stq1bxc/J/+3YsZPmzDmAfTDiD/X9BP3Pv9+mjs5O6uzqpE757ejspLa2NtqydSs9/vjjVFMzLPavil/o5JO/SXva9hiuFvhtYo+HJqJcmKM/PvIIpYqLY7+Q8dVYX1FAY0aPoYH+gcE+oEGB4S9bvpxKSkvz/ErGdwkvoMqqanrq6WcYni1ZEDRD688M0MKFCwnKsziyL1T45fj8XCiZTIYAJf5mpmPUqNH077ffZj2sM3oY6+W2ujqOq6+j+rp62t60w/r8SGvq7Oykiy6+WHxKjIvnB3TttQtpINNv6TFYdPf00GWXXkbKY9+b8eGy3y1Bnu/Tfz77jHJhNp8Bmv19k6dMEV8a87GispLe+uc/8/y6mUyGFsxfYP1vzPMEpYuLae7cefTWP/9JO3bupL7+Pooi9rVGOqL29nbasnUrXf+b66m6ukb4Kzgqn0pLy+iWW26hbDbrIMZt4v7776eiVNri5gVJGjduPHV0dlJHRwf/dnVSV1cXtXe0047t2+ntt9+mffbZl4JEkhAkCEJTSWkZffjhh9ImOORyWbrqyqtifMSPfuqpp1FfX5+VSS6bo9ff+AfV1NTY9mjw32effWjV6lWUy+Xy8CcSIoYKmn0CceOR/0QbbWhuYeNnKw0SNHz4cGpuaeHcRmkodu7bOgw4qyzyqzXl2vbQxlO+TatSE2lNero1fmuKZ9Ca9ETadM55lGveTRTFxisPP60p7Oul7o8/oZXTZtPq1FRaXTydVqZ4YWRVeiYtLxpLu554kkhHFkf75+BmFEyqoe07tlMiYRSYG+Go0aNp06ZNgxqyK0xt/7GJ9pWN3/6kAuYhN4qAPlq61CnrwBbc+vr76KmnnpKFD2OsfBo5ciStXbvWNlgXLwuDiCId0a5du+iwww6zhoWNk0dQyjZwFSQokUjSCy+8aGHmARoUNC1bJsYvz/Ft/liRTzjhRGrZvbuwcByEzl3NzTRs2DBesDDG2TWCnk8HH2KMX8zrgUyGFzyEr/ATNG78eFq5apWVpxW9dG6GNO28mzxaRxTpiBbdfjul02leePITBKXoqKOOop6ebskYk9Dc3EyzZs22Cy7KM/ibRurRueecS/39seEkYro3bvySUqlixl30YsaMGbRl69ZYL0nT0888Q8kiWUwR3hQVFdMRRx1JTdu3UzbLizHuH+sF19Pb00vvvPcejRgxMl7I8wOC8mjvvfehrVu3xgQJux544AEqSqXY8CWS5AdFNG78eEuDqxaaNC9waU0NDQ1UO7xW5JgkpQJKFqXp+huupzCKbJlsLkdXXskLHpCOy/MDOu202PhFUUTr1q2j0WPGkPJ9NvoyCNh75t60etUaNtxD4FT4ZoImIo8nBLHHw0xZxQVmp7nsK2HfC09FTG6Z5iklWyZ4XMk+GjPGtANp+6uUQnb7TvR9shLKS7AzlnhbiR9lUT5/FibccxeC2mrA82V65vzJj58qRvGc/TDpwbuhq0qgc2T3gClFSAZl2PGbWxEJLRYpd46v2PegmGDBMw7K/EOEKIp4Su5Qw9PVIYIwx1BuMpFsEzDPeWEQIIVUURoHHnggxo8fb+tS8LG7tRWdnZ2Mj7PVwEKUqaeCwqpVq7Fq5aoYHyJMnTIFl112OdKpYsuTMAqx6He3xdVbX6/DFoO7iQfTmYc8sSZpApZ+/DHee+99aKNDBSRDATrSuPaahWhta7NTcQXZoO745mxwFngUxNfnKXH487YYk8j6WeDigOvvs1klvwdPKRz3ta9hWG2tM31S+OSTT5ALI6ZBtkUREbq6u7F5y2Z2VHlK2omGMr5wAj786EP0Dwwwq8Fl+/r6sGgR+wOJx69QpHHsscehtrZWkOLy1/zylwgjzSebZHlpwoSxePZvz2L06FFIJHiLD+uzWUAwbUWhuLgY8+bOxS233ipgxQfo+diydQueffZZaMGXpFpPpqIEWN+07/s2j4Lx0fEU1xM9GDtmHG668SYkfR9KaSjPQxiGePKJJyVPzHPzbv7VxvctoampCcccewx27NzF/CX2Y06YMA5//NMjmDFjLySChAiZ+RKH2HUiXDfUMBsLAwuAnxkHh4nirLfMNcGtjwCQ2Rwsiml9SCK2MESmrh6qIwsidqp6YjCjmgSG338ngqoqEbEE5TjKLV6Al0iiZO6hSB4yHco3DlpBVhMSuzqR2bSZ8SWLoAhQNnuKv8+cCxWvNT+aP5Gz4q2ReWl5wVFuk4GVjV+Vp+wKmpDAgRB3IAT2aQFQilBcUoKqqkpxGAMEjSiMrJIwtSQqGOMBArq6u/Hqa6+iu7fXGikFhXmHzsUPvv99pNNJdooL/9duXI9169YDxEbVBlmAskFW9BkhXkxQABRpJBKeNTadHZ146cUX0N7WJnH5HCMibN68CU//7RkoeLbDJXI6UCX7LU1RwyZzfpQUoF0jGfORpA6WM8eT/MMm2gjKxUxh7Jgx2Gv6XoACPNH7vr5+fLz0Y2gd2SWh/r5+PP3UUxgYyAJQICikUymUl5fD83xjy9HQ0Ii+3l5ZEOTastksVq9ZDXjGPa8RBAFmz56F0pISpoKA9z94H62te2TxDyB4KCstwaOPPora2hpX6raMod28EAiB7+P0007D0UcfaXVPQSGTDfGvf/4LLc3NzA9hhOEn+8ONskr7txXGdZtXAqG2thaez7quQdBaY2BgwKYbXpv6DG1GRpqAjvY2nHTSSdi5s1kGSGyEh9cOw8033YyDDjyAN57H4pbyTvtz0GOsWf+9GAUORj/MkSGmi5FTQrRliDjguYy7igPbG5hVJjYcjJQCIezuRtO998FXScAnQGlAaXhRBJo6DqisAfnCYFEUuAKIE5i+VBpjr/w5/GFFYqUYDa0IHkrQ9cGHzHARnlAgvSNLl8HGIuEKTYOO6+XtEjEadhQhvY7tweMMFiajbWpnnhp7osQekiQqs9UHQF9fL9rb2jlB8+gkzswyYJGad+GNIrQ0N+OVl18WHHgjaSLh45If/hBfmT0bUydPgR8EAs9DZiCL1954HdryxASnE5RXDs6pAAWUlZXj+OOPhyLNx6+Vwhv/+Ac+/fTTPBXhkiyrX/7yGmQyWaZDKZSVluCIBfMBaOm08gu6o3gFsO7JWW9mWixHTjcqIRyVSGNglfDK5AKAqqoqzJw5A4HvgyclvDnipZde5E5GnOq5KId//vNftpzSGmNGj8Ztv7sNtbU1rHO+Dw3Crbf+DlrLOWEAfX39WLFihcEAgML48eMw77DDOIOg88H7H/LqpmLaPQVUVVXioIMOMhTa7ATThjnO6IUZrBSXpnHTTTeBItmpoLgtb63bhpbdrY4hNW1aQcnikjZHxmwYpAz2ra+vH4CCjsxKcywBKzfBi6xMYls60N+PM75zJtauWy+zPx54lJWV4NJLL8UZZ5yORCJpiSYSGIqlrpQMFPIQjl9491o+NVLeNMrBxgZKobe3B7///e+xaNEiLLr9diy6fRH/LZK/Oxbh9tsXYdEdd2DRojvw/nvvMTIkcHMhvLZOHiGG0qsDiCjCxB9fjmRFBeMgKWQeDA4GN2GeUkBi/Hj45QkxpIIqAUQ+os9XCBzZu8SctKQbBTJ12gRDu3I0S0rEbBP1UtzrK0fx4lCw+mQkEiMgEnTIlHp1qLFm1Ro0NjZxnEx7Jk2aJCt05vyygDUjdwKiXIhly5ahsbFJGixPxfaeuTcmTJyAIJHAlVddhUTgWxjZMIf77v09MgMZgRejbVG16LH+aEViWBVKS4txx6JFzCMxlh0dnXjkkUfQumdPrPbStj7//DO8+vprgOdDeXyMa+KECfjud8+NB5uF/CzgMa/6RYKUQld3N/76l79i0aJFuN3o56LbcbvRT3lftOgO3HP33diwcSN3WEIPRK++e973MLx2GMD+cSjfx4svvoAokpEfEXq6e/HJJx/HoiSNIxYswEEHHYDi4jRA7IJR8LBs2TKeuhIQRSHefudt5HKhnF7gsmPHjUdFZQXTCObTww//AWEUgq/f9JBIJPHDSy5FEAR5rOFnp9OySMWdrO8FmDhhEmprakBatlIBaGxswn8+/VTgkMhJZlJKcUdk7IszCDLBfctms1i4cCGy2QzrI/jkzUEHHwwU4mae5Z3AtvKyH/4Q777zDnTMWKTTKfzkxz/Fr677NRKJBOcVYnk0atovCRWCupvR1GUcwHmeQHHmsgNY0+7du6m8vIKduIp3z5vd3LGD1/n1OZ5PESTI83y66uqrjTeZSGvK1NXR6hETaU3xTFpbPJPWFu9Na9J708rkaOr+eKksIhjEjAPX4CbPcTLpSJMOI9o0bz6tKZ5Ga4pn0OoSOSGS3odWjpnsOIHZAewQbB3LkSyMNG2X1V7H6V5aWkYXXnghXX311f9Pfw0NDQKXKdmxcyfNOWB/3sUup0GU59GHH35IuTCkMIwoDEMKo5ByuZDCMKRcNkdffrmJRo8aLacWkiIHn4477nhqbm4mZoXQY5zdxDTu3r2bDjzwwHgRQnmklEd/fvTPlM2xkzibyVBVdRWbIllBLCsrp//597/z4cbLTbbG5ctXyIKHOPiVT6PHjKE9ra00b95cgln9VD6l02l64403rMM7Ik1RFNHXv/4NguLVS+UnqKy8nP762OP0wgsvxKc8ZMHjkLmH0p7WPTEOWvNqrzInbPhERqyTvPMfytVX589PUDpdQkuWLHHVyT7V19fTfvvtZ1dIGZaiHTt3UqQjymYzdM/d95DyFC9WeD4lEkm64447aWCgn0484QTGwU/IIoii3p5eIiLq6+unb33rFD5l4qzk33DDDTEOoqujx4yWUzT8ly4poeeXLBFsY4xj6Vj/P79rjtUR5+/q7KAFCxY4q/O8KPPggw9KO4lIa6IHHrifitJp8gJZdfeTNHrMGAqjKP4LQ8qFOcrmcpTL5qivr4++/4MfUDKV5hM/wv90Ok2vvPJyHr65XI5+efXVIg/hgZ+QblFZvYDnUyqVoiuvvjrWb0unsSuGcqE1jzX84sZ5bDJ5msQW3jWSHMeXXvG7nfYoD+TsqLcnEeR8nfHREDxo2UtN4kMiADqbQ9jeJ5ae2EGMSLYhBVyNWGi24dwP0aCpr1h9Nv32ZIkABkDwKAL18858M+3inkdGomDauFeTnZVmmO50UT39/fjzX/6CO+64C4vuuAt33HU37rjrHtxx59248w7zfC8W3XUXFi1ahN7evpgA80vGs8YwlfLwwQcf4qGHH8b9DzyA+x94EA/e/yBuueUW/OhHP8a5530XM2fOwI7mFjtyJBBKS4tx5ZVXYHhtrWVDHFiIpAnNzS1Ytmy5TO89KM/DyJEj8ZXZ+yEIeCoRJBK4/LLL4QdyeF4Bvf0DuPqqXyIUv6KZ1UoyBxkN5QVJrKqpwV1334N0soh57ikMZHK4/fbbsae11frgPnj/A/zrX/+C53uyv40wetQonH76aVJFvLnZykx4SUbmnNOpX3yVjo7C80Dmz/gPZWHDwjcgiHlMAMaOG4upU6fyqQOCDCM8LL7vPigCcrkQ/3jzTT79IPyYMHECTj75JCSTRTj2uONRUlIiLUAB5OEPD/8BWmtkc1l8+ul/GE/NQ9xhNdWYO3eu5THZgajQavSe+PKAQseEeVYGVSeaRIhECqR5pOSWiPXL8JUPGCgyNoBxHMhmcc+99+Guu+/G3Xffizvvvhs3XH8jfvyjH+GCCy/AxEmT8NfHnkQYamgSvRM3wgknnCh1WIlZDMjMXKAAL+BN0nIMw4PCgvnz8Ztf/TomzJhIwwMjQEtDzD92ubkMATzrsAZz1FEzMTiygqMk1akA4u3iEDPHLLaxz4gAigx5UoyZCy+wSkYw0zk7KYoNrfF9KY4bTEY8BSLiTZwMlXOGAFQiyfR5himCgwRlsptyMRIybBd+qAAqEUAFvLHa0KJ9sHPbU1CeD6U8XnWWapSAsnVBfKZQuPba6/Czn/wEv/jFz/Hzn/8cP/35L3DjTTfj4T8+gmeffY47D7PdnTTSqSJcecUVOPjgg5xDfsJhZQb+hJ6+Xlx11ZWyLz/2uXx1zhyMGz8WILnUgIDTv316fKxIVtyamhqxYf16jhIhsWFwazRPRoomljB58mTMmzcvPjalFJYv/wKbNm8W53cG11x7jV14gkcoLSnBfYsXI5UyFywo7pCsEZBY44+0xtcY4nztMG+cV34VrP/O4u7QBcW1munahRdciKrKKsZFVnPf/+B9AAo9PT14++1/wxfjqJTCV2Z/BcNreVP3McccjcrKCm4ScpnBsmXLAAX09vZgx46dvDrtAUSEESNHYNq0aQYTgw4A7swsXsySGG+HOS6fzLvliink3NBCYiQ4GP0xvOIEnlLyb3tbO66++ipcc801uPrqq7HwmoW45Xe34Y+P/AlPPP0MWts6RLfNCoZGVVUFXnrpZYZn5FCgSAY/UixfQJD3WK8/X74cmzdvRhSGgFnVNYRZ4gRfC1/giOKy7DnKU4r9QxzHhLurmTBKJ6MkE3xPobK8FNWVVaiprERVZSWqqsxvBaoqK1BdVYnqyipUV1cjnU6LEWCl9RIBgjKzOMF1EvFJJIRRLEGRnGOnbIIVss1LUJAjTJajBOUHKJs6WXoVV8sFNmAryPPLmeA0PAKvNvGIRDipVLxWTewXIdllzgWMdhlBsG+M0VQ8KpFRslnIENFymjI1A2VlJfjhJRfjJz/5CV/Z4wgbRsaKG1J3Zyc+X/a5pPItMkVFSZx26qkYNmwYGxAR/qxZszB69FjmneJG3t3Tg8WL74fWsuhgFNPUaK26uT1Zma4bgMKwmhpcs/AalJeVie6xsfj5z36O9vZ2fPLxJ1i1ajUiMRqeUhg3bjSOOvLIAnnnC4xZyXWJOQCMYkt3GvgeSkuKUVlRzn/lFaisqEBFeRkqy+K4isoKVFZWIlmUjJkIAQiWz/Tp01FZVSG6w7q1dOnH6O7rxVNPPY1QRzxCgkIymcS0aVNRUVkBAt+kMmHcOHgeL67AA5555hkM9GVw332L2XdGBn8P8+bOxbhx4ywWljaIcMF6RBGQyfJJEk4TVbM5hgiOrhNpPolCvJChDC+FBwrsoxZbZdsHd2Rci1I+lM8ds6d8KD9hV+tJ81E3pQijhg/HU088iQMOOMCRn4OXfeY6PABlpSUoLipi/kiT3rOnHd844QRs/PJLOTKbJzAO7rYo04lB9MXwSJLtaFxySCFHqU0SIAsWXLokncYzTz+FJc8/i+eXPIclS57DkuefxQsvPI8XljyP559/Di88/zyee/5ZPP/8czjvvO8aLvKUJ52CGj2Mj6+yK5XXtoMkcg07oLM5Wb2xZgAQk0AQYqy4WVi6qwu5gWzMFCNYpZE6cH/WHWGCyzbbXsFGA2BFZAELixQf4ampKseI2hqMdP5G1A7DyGHDMKK2BsOHD8eI2lqMGjECYcTnioVsXhFl5G39BNNqeWTHBlNzlDQMpQmlqSJMmzoZN914A66//npUVVUKXqKUsfSg5I63v//979jTuschVmPihAk4YsF87uZMP6AAIo2rr7pSjDcvGPUPDGDp0o8YhuGLQOL6ZBEAis86g0ezRkegFPb7yn44csECW5Y8DytXrsTqNWvw05/9DJlsjkcJUYR0qgh/eOiPfDWVKyErTyXTQyfeNk7hqlzfVF5WhsWL78Pf/vY0/vbM03jmmSfxt789hWeefgrPPMN/f3vmKTz7zNP4y1/+gln7zoo7fANQnidMmogpk6c6xwi5o17y/PP4n3/9C1C+jFZ4C8ZZZ50FKN6/5gcJHH3MMShKJDmfGIe3330bHy79iKfgsh2mtKQY++67r+xTdXBRQHlZOTzyeDsPETRpdHV2OvtDGGPTKlz9NhoSS5CQyQygvqHe6jcBKEmnUVJSKu+8rYT1i5lMUFaH7WhdrhvT0Lz9hzSgCZ4iDKupwtyDD8a7772Lr33j6ywuJTg4Izst+mYwJCIsWLAA1167EOKg4Iyeh5bdrfjOGWdg69ZtvB9QVM0CM/A5BeaNU+1wRSIKfYJ5gV3cLS284AGPd2ErP0HDh4+gne7VSlH+zvIwiijS8Y5vXmCInea59nbaePxJtCo9mVbZI2nTaVVqGq0++HDK7t4tVyEZRyaXlgcXRaKIFzy63v+QVg3fl1alp/O1V3JU7ouiCbT7yaeIdGTh5ZMav2nZpb5jxw5KJJPkJ4qsQ7iquoZef/0N+vzzz/P/PvucPv/ss/z3Zcuoq6srr4qdO3fSnP33l6uA5FqgIEnDR4ykiRMn0PgJE2j8+AmUSqfzridSXoLmzNmfNmxYT1rHu+MN3LxHcf52d3fTgQccmHdUzPMD+uGll9H69ev5qFeDHPdqqKe6+jpasfILqq0dzkeNAl74qKispGf+9ncrOeMv5mo0fb5sGS94eHIaRvk0enR8PZTWml5+5WWqrq4meMZ5HdDYceMomUzJSZME+X5Axxx7jDiz2TH9wgsvyFVN8WJAfKVV7MQfyGT46i+Tzw/4hMfKVbHeOXC5rOhsJCd/rI7GvLR+dE302muv8yknuwAW0PkXnE/JohR5CT725fkBHXbYYdTS0iJ1cj0rVqyg2uHD7ckEKJ/OOedce/UbL2T5NHXqNPryyy9FC408iUId0c0330xFqRK72OgHSZo5cyZlMgOxAvw/BK2Jwiikzz//jBda5JglvIAmT55C69etd/hB9OADD/DxNtEH5ScolS6mceMn0LgJ42nc+PFUO2IEJYvSMW+8gJJFKXr55Zepp7dnSJ01csjm+Eqr+Bgpy/lbp55KO3bspMPmHU6eb44Y8nHTRDJFRx51FNU31Fv5FAZjK1juQweni8mb1fI7ALhDYRkx8eRYbncwltSYdZPX/FmYUlK2YfjFxRj2g++BVGhhQsm0b8tOhA2NsvE2NtV2NBCbbru/UPf2YvcDD8PrC9lHJL2BUgra70f5/Pk8bhQc80mNx5amFp6KuD0HT2kmTZqEOXPmYM7+c+R3f8w5YA7mHLA/x+3Pv/vPmYOysjILNR5WGKYoeMqDp4DF9/0er7z8Kl599VW8+uorOPPM74BIppoACBotLS18qzHFPST3dM6zwNYErF+/AZ8vW8a3wZhk5eHll1/GGWd8ByecdBJOPOEknHjCiTjpxJNw8knfxHnnnmdx4/wKXV3d+Mujf0Z3V7fDCSNu4yQ3m6EHMRYgwry5h+HIo46SHfV8I/D2nc3IiXtDKYV0qgi/u/XWuFyhqJ0RHgw7hfa4Su75zejd8oTHpvyfC1DJd2CsvE0Jd4TAU92ZM2fwpmPZjKyg8NRTfLMIj6AJRckkDjzwAAwbVsNXZgm0cePGoTidllkMoDwPzzzzjPjGWd8UKUybNhUjR42yNSv5x4PCYYcfjsAz+LNPdteuXVi3dh2T878FV/VAGBjIYOHCa0GyaRjiP5s8aSKqa6oNRqIKMXdZdgrjxo3D66+9ildfeRWvvfoqnnr8CYwbN8axEwpRGOKdt9+Bb32reeJwhWbTlFFT4ojy8nI8+9yzOPDAAyWO20QYRvh46cf4+c9+hp27duSjaIPwcOhEkLmgy1ZakCH/XTB3Zh1m7m9rd9sitw5rUS0sIVwlk0jP3geoTtupEwgg5UH1eqi/8FKEu5qt38woGE858pWacjl0vvUW+j5cAR1GdjpGYN9GyREHIDFujMHA1QUbFCTBMEIQ1rKJ2yChtZZaY8ZaZSmIj42UE+zqouBIGuPGj8e+s2dh1r6zMHv2LNxyy60YPXJk3CKVh5bdu3HjjTeiu6cXKDDW5tfQoHWEe+69J48cgH2VzbtasGbteqxdtx6r163DmnXrsWbteqxZtw6r167D7t2tUBZ35uHatevw5Zd87ZGVI0QmxA+MkdEH+VHcoVVXV+O8755np+pGX+xCCBHO+M4Z2H//A6Q4T1+lFltXXjD5HIyUio02bEmjV5JJdFRZGAZPLsfZhL8SBw8YP248X/MP4k37ADK5HMtT/FvlFeU486yzLWDTIVRXV+Oggw9Gwg8EAdiOmAS3dDqFgw46CKUlJQbrvDBnzldRO7wm5geA7p5enH/B+WhubingTwHvBBgBiEjjqSefxPsffAggXuFNpYpw7LHHobqGb8sxImC4FHOTgFwui31n7YtZs2Zh1qxZOOywefjeeechnUox54gQaY3Hn3gCW7Zti/ER8RSiyu3fZhHPFPuAR4wcgUcf/QsmTGB/NMnOg4FsDm+++U9cccUV2LFzh9VDxFbJwo9DzDs4Nx/mMdshFbDL3MZBH2dmvslChZSyWZSJMhXGvwaf5JjRqPjGMdA6BMRWKqUB5SPc2IKmC3+IzPbt7EcAL7sLJswIEHQmg76P/4NdN94J3Z7hrQymak3IRV0YcfWVbJgUjHcxP0gBVhI2tiaP9QEa3C09ceA4N8bg6QZjsETQNjvnsjyDwuhRo3D9DTfJ/YAEBY1sLof33v8Qb775phib/xYIPT09+Mcb/5DFE1cZ8rdKSHVQckaVV6r5qia78EtA6549eOKJJ3jDamEg05jlOU4AhCalgMMPPwyHzZvH8fZoGJeprirHb359vZTLp8yYVYN2AZvBUmEDZmCajtTKXOg1eVlzbI8q8rOZhggKQSLAj3/yE6RSfEkmLwqabVVc74gRIzBl8mQpYYtCKYWLLroIRUnZlEuyQCRFFQiVlRU45VvfkkIOHiKn8rIyXHftr2RDBDM11BobN27Cr3/9a+ze3ZKnh7adCSgeRBD+/uyzWLhwITIDfNGvKTN2zBh885unIJA7+IB8Ioh41Gd4DRmxQymki4tx3vfOw6xZ+9oKleehrb0Nl192OcIo3pMgArB0GX7YNLdauUB4r72m46GHHsIw80kEAEp56BvI4OWXX8V11/4Ku3fvNjXzAIwBO/AoT8bKLng4ONnMriILg4yCGascBAknPQ4aDMyeYSSK9wpKf00AvJJS1Fx8PtSoEqjIrPAaVJPofW8t6k/5DrpeeQm6pw9KmxGB4m937GpG28N/RsNFPwXVd8KDz1u6zBiMQpR962iUzzuM8ZH6BwXlROclm0aE+MwtZOgg5HBRM2KIA7/HbLcPpqizPy0WSZz77LPPxFFHHsEwZPGlrb0dd999FxqbmuKceaxnZP/yl7+gs6sLPJLh/Wfcc0QgHfIf8WWUpCNQxJfOUsSnJEiHlkwohUw2h3ffexe7dsnt0UMEl33M+3yOVFVV4fLLL0dtTQ1HWANOuPTSyzB+wngbT4iPf0FgFrpkLOHCBMML1g4zkhNDYzpPh2GGbQaLyJwOkZR8ejjMO3SufFOCR3Uu6xOJBCZPmoyqKqeB2lTC7NmzeMcDzG3HTlAKI0eOxORJE02Ek2gMNvDtb38bEyeM50UpGAMwgKefeRrf//73sWzZMvT29Fri+HgkG7jGxkbcffc9+OlPfor2ji45LsaXBJSk0zj7nHMwYaLIQOrj43sCyxkNKxWf+TaYjhk9Blf/8mpUV1UL43lb2NKPl+Lxxx5nOUDcVOayU6c8iYzdAYaxK77n4agjj8Kf//xnVFVWsC4rpr9/YABLlizBHx7+A7q6uwSaEZzogY0wdFn6tDPOce2YGDsCdu/ejWnTpqK7t4+3Y3hA0vMxa9YsJJJ8mWm+uPjd/srU8eOlH4nxlBARdKYfLX/6C/bccC8wwLe3kAeoCNJgCaoiCW9CNVRFKaoOPgBIptD14VLonS2g7Z3I9RMgN00oX0GHCkQRvBrCXp++g8ToUba34n1w+cFVYsOAXbt2YcKECQjNGXQoDB9Whf/51/9wD2fkw0kuB824fVDYtWsXTjjxRHyxciU3OgI8Rfjwgw9w8CGHxEWI78TZsG4DDpk7F909vSILQrooiV9eczWuvOJK+QpXft0EYNKkyWio325HeRVlpbj+17/CgaYOitsfGwoZ+UkdmWwW1117LT759DNejSSNknQKt912Gy7/0eW2PgKwfPkKLJg/H30DA9bPNWrUCDQ1NdkxG7OK0NvTi3POOQevv/EmIuK4SePHYtmyZaisrMzTGqWAF198Eaed9m1uqGAf88EHHYjXXn8Nw2qqLfOzuSyKUun462IEpIqKMHXq5Hy/q4Uv/4oMlWLj/Morr/AHnZzcbujv78eUKVOwq3m3jNwMrgrlZcV49tnncMzRR8sWIma+4QARcMwxx+K9Dz6Sm4EMVEKqKIXTT/sWHnvsMZFLQc0ko2sNrFm7FgceeACyYQQ+esbn5xOJBGqqKzFu3DgcddTROOGEb8APAnR1dOGuu+5EY1MjmrZvR2/fgOzx45aY8Dwc/7Xj8Oijf0ZNjbloVaRAwEN//AN+/rOfI5uNQLKCPXH8eGzZssnKyjCsq6cbF1x4Pl59+TVkcyEzljRGjhiO5cuXY+RIuZXajBoB5HI5LFy4EHfd83s5mw1ARzj1W6fgiSefRDqVErEpDGQG8OZbb+F73/0uevoGpG7edlZZUY57770HZ5zxHaTSvEc01qb/EszKh10RkQdZKyEiTc0tzVReXh7fsyYrOuZuP7PCFq+2yQWOQZL8hKyYsp11glnP0pTr6KDGn11JK8qm0urkVFqTmkarS2bwEbVi+U1PozXFU2l99b60fthXaG3pXnKMje/u47x70arivWhdahqtHDGV+lat5rsAY4KGDO6KkFmh3L59ByUS8XEb5Sdo+IgRtGqVWUEcgpzCULCqvGPHDvrq/nMIQSArhAnyg4CWfvyxk0vKaf4wz/nnX8D3yQV8tAieT+MmTKQVK76wK5Wu7N577z1SyiMoya8Cmjp1KtU3NMiymFmFNKtkjqTlfSCTkUtFVXxppOfTN0/+JrW07HZ4RfT5559TSWkpeZIH8Gj0mDH5K/P2j+//GzVqFNMERQ/efz9FUWjxIkOPu9obsE7BrPbujj9gpElTZiBjV4W9IF419EQH7W9CjhT6fCEvHzNMkOcFjLMcu3PYEvOWWCZXXf1LSiaLeBXdk/vngiSNHTuWGhoaBy09Wl5Fmp5++mlKpcz9gLx6Cj9BVdXV9P4HH8hqtFlTHzroSNPdd99LntzFqPxAPiYkH1ryfEoVl1BVdTVV19RQeWU1+eaYpvm4UIJXmYNEkubOnUvbd/BFrlZOzuPixYsplUqT8pKkgoC8oIgmTZyUzxmnzPoNG2jc+PFSn7kw16cf/eRHfMGqyNgUymazdMUvfmHpUH6SPOcDRtweY4y6urvoyiuu5I8qKV/o5mOF1VXV9MEH7/MHn8zqfgGSTtXkub4BAjuh4yBDBy1G1kniqQ2f5iDpRwwsGeDys/WpmMIufA5BeTlGXH8dqr/7NVAqgtL8kSLe+2c6Pg9EPsL+LKI+M8rw+eCL5ooUeYAOEVX5mPr680jNnOH00E4oeI2nrbEvzY68LU3mn7hv5H6dfSnurNiCN7zkLBaGkndAyQkLTmR+cQalFIoSAX57002YNHF8/K0Q5WHnjp347a23YHfbnrxBZkQaj/zxEY7zmYhEwseMmTMxatSouJMWP5xSZEegdnxGQDKRwGWXXYbqquq842Wf/uc/2LJlM9Mr/xl3Bn8fA3ZIaVkuKmR4sc8+e2PBggUoKkpi3ty5OOvss+2IjQdLLAvLQxieOowVgkluGuF3wcdKMuYnmYUr2Z3A7DbTYBXTIOANbE41sPi/448/ji8T8HwGpAHSEcpKyzBq1MjB03MD1AMOPXQuEomAnU1ys4siQlVlJb761f0ssxQVcMDoBtgve+kPL8Z99y3GsGHD7L46ppJ3S2QyWXR0dqOtowtd3d2I+KMxrBQRAaFGMvBxzNFH4aWXXsLIESNZPmahw9YrT0ru9JJX5qsRAqNtfIqTJ07GN08+BcVFRSIXBvjonx7F++/zzUoi6Dz5mOridAe8grQ2hdKSUlx77bW48IILoDxAm1MkykNbRwdOOulkfPLpJ4iMPjp8NLCM/niIZ/MMw/46lFpZxC2YTGbnuJkxIvbZ0hAT60AWRw77D4KKcoy983ZUX3c5ooocSMvHXjzies02Adu4nAsPPd4IHEZdKDpsL0z7+E2kvrIPnw1Usf+HC4rw5BVw6ROrwAcrbH6WCpdi/5HBnYVieAADwjYVacjG2MRZHMVyeGmREke68jBseC0WL14c40CEMMzhtVdewTv/fpvv9AMr0bYtW/D8kufl2BqDLCsrxcKFCxH4vj1sZI22wUX+MYpBUCgrK8ec/eeIyvFm792trXj55ZfR19vHPh2YjoVzxbxy7D5Jw5BaE4kkbr7pZtRUV+JPf3oEpRUVIhPDzzzJCAyno5GQJ1KpEwA8kRMjYbO77SkvHnKmllnACTFsBxdS8OBh/uGHIZlM8C0yAqe4pBi/+vWv+cPi7LiywdZLwNixY1BRXsEGSGkAPF2dPn06StIlclTP/BmKmSMuykWpFC6++CJ89p//YN6hc3k+zJ/is9hLa4GSm04YBwIQIVWUxBVXXonnn18iJ31UnlPVLhiIX5M05MNckBNBrr4LsaI8iUSAG2+8HsNH1IoR56S+/n6cddYZ6OntZYNn21TcphW4XtvGgBiG+VMKFVWV+M0N1+Okk06EsnQDSnno6OjEGaefgfXr1kkbEEnaO0rjduRxQ2XF58pZeK4y9vUPCLIRoHNAFAI6B4pyoCgrv4P/dC4LHWahw0x8Vs8QidjXxLUpeKlijL7iZ5i57jOU//Q7QKILFPXBJwV2BIL9HMqDQgClfK4n24loSilG3/sbTFnydyTHjYsvNTVGyjZCi0AsBDhCFLn39/fziw7tn9YaWftxGpLRp4Fjiw8+RG0MrtSnZaFBR6HcqSaVFioCgCAIcNBBB+GAOXNiXMQvd8UVV2DTl19aJfrNDdcjm80CFAJRFqRzGD5sGA45+GA2YGSUnP9cg8UQiI0aAaUlJbh/8WJZCGF5RmEOTz31tNxYzCVyYSi3Foey1CUn4YUA01gIrIieUpg8dQrq6uoxba8Z8MCKp6z9MsZDmj0RoENQFMrXyBzzSFyWj1EBiELeORDxH4WOPjrPcPVU5+z+MduxGjxiTRUjRgiCBC68+GJeddUhQCECz8PkyZMExiD7x89Kwfd9/OrXv4IfeLywFEUoSga44oorY7IdubARcnGKjXyQSGD8uAl466038fhjj+Gggw8CiPnE13uF7A+z7xE8aPz0pz9FfUMDbrrxRr5uizVYOuG4i1ESPdA3AKIQOuKFsCiXlU9wGknEem6OSlZVVWHx/fejpCTJdkK+tNja1oprFy60rFVQiKII/f0DjGeUs/njy1SEbqnRPNYOq8EDixfj+OOOdWTJnwZtadmNCy+8CLlcLtYX2xsLcQpQmuJ1TJcWAljxFAtAwVmeF2C8mhQrhhnp2ODUB8QLKEx4nKbyeSiNkQ1K98svon/5F2h94jmEzTuhtM+zhqRC4iuzUfH1Y1A2/zCUHXIoXzYA8KKGwdMx7oZAHlUx8/MCcUMV4l2WM+5yxtU0Eptmn5hXfBFsAWwTCDKlEgVHfp3GUEC4aVByKsoHJnAMrnFnxr8G/P8WCmXipMj/MTVib5xkU9ggYXTFPElGlyNGr4RKQHRJYAvmliWMm+iO6JEx2PwseCip24BXBr68G96TYCPPlncWQUutrd/EGxxsUHKXokl34NiiLgxnmgeRk0nMq0oymTgSdE0GAuI7ACWup7sbb771FtatW4e2PW3o6e3B+LHjUFJaikMOORSHHHooAl8xEOGFkZGttyAQxe3W5hRE4jgDoBCK5JM3ZeuExQGK63B5Yeo0EIwclO1EKV8RC1+ZOfKGmEaXUAIUkanaCVYhLNqDaTOKNGQzlwYoWkiS3yXIMsJqfIwsZNWRmeDxdxAUC40haGjEBk45u/St4lmGxlQI55xRRiGT42BQMuW5LgOgILPDfSs4w1SnYZpQyGuTzySQhZfPX9O9GOPgQjKKSAqxJpCYrYIKmVaGaw0NMd9hYNurvkyilHBgxTyLLQiDYNwNlgXk2zjk8VYeTKWF+SXYOg1OivlRWM4tXshio2pWNwQJm4eYCwoGOUOHWFXp4JgA/mVYIp8CeuP6HD1xEvM7U8s1ewWV7dA4Q8xbW49Ai3sPyw5DiZnh2M5CmO62XkupQ7JJiDsXjmBWDC0nU5x/450Ebtrg3PG71XJW5rxGaODCtH+DsDzzj5FBIb9NSQHrjvxipJ1M9imGzjjlG444b/zmwuPfoQwlB6HNQZIbkEsbKbmkWbauMZku0S48V4li5sfpcbB6bBIKZMojRVZ0S3NePgOtgDoDV5IHGYC8YBkbAxYltSrn6AEsb+PiXKyQE3GwKUNmKYgsaMH59NrYuBGCZwamw+NU81jIF4Zt6TDvpo4h8csPXE0+r2yZQlLktzCbSeG4/16YMJh2Q6Y7euJsUt4BY2rJs6PI1ycT8movgMH4O/og2WK64sZeUNxx78SGJa6ayxl4ki0Ojv5Lqttj5eXj6o0szYg+jyp+ykdVyhfEidG1Iz7553+zIy4O/C7NypaK8VY88ItNRX6yE9zGQILAkBi4ZsfAiBt24T67fLbEMQSwz8JeL5rPKcMILiIJTvpguP8tTpRXQFkSDS/ckZwJys3hBIkimBGt5TwXLxR2YRgKZL4N4jgLf+g4Zs2QBQfBj6MNgYpjBH9XZdxftywQd1y2jQiPOG/MgyGq//8jOKMJJjavQcT0OLwXHE0mkyfGUAzA/yWjPPNjYOcbpEL+CCv+D8AFcN3mVkBPHIzfOc5saIU1zvKu5RsnAqVQPQqN6qCaCM4UfRAjnYyOsSFwosP4mB9D6GchMNP5u3ptkkwfWwhC0jBoSs8K6tof+YARR5hM9lk4yeZRgVnkPIvCSy5OlUUAGOQAYYD8Spot6AAh+SdWST5qBTG0immKOx3zGyNvQ96r5DP0ucHNl9/bMW4KDtfzgDovxo9jswqyTjnGn+suRD8/xKlxeiHOg1uo5QnY8A2qSfyo/6VSk8U+G/yVvBv4MQ85wrLF+nJi1litkuwMKy5LgqfBNQ81k0BcxhYTJPOnigVGw2YTiAZ/I5MYxThCYvLj8zCSEJsIAzLPaLjFzCqyCTbNlUNBu5FQ2AlbPppAHKcUN2gTGB/phIQRCtyBmzTktU2OsLUTpFNw0S3kgzMKdAkWZG09rowKYJAMEux7DCV+N81IDcZZzEKclxGNS8vRw7hdxKdSTJDTc5bKfIjyGFckDJTnPGysJTa9spvGGBijRjDwYutso6QgweyDYpgw+mJwsUJ3K4rr4md5F1lxSkF+eY+VzclVwKw4oTC4VBha/3tgckzDcPJzpdwcpDHE1eXDt7EO82wvD16UiZseW18Fo3T5geOd2pSx4gWG3xYcjBnjH/Mu5keMF0k9MRieJis3k4udtZsyy1CCk1O3ZJMgq76AdFpxd2MaUEFRCaIceWmD6zEhpjI/WANr6HV02QRb1iFXQc5cDxFstMA2RsTS40g5zshBgflFMMhJ6iDSDMLuO8PlFEOH6KaTx+Qntjc2MGpxurEzrjEy21hMh+V2K+apANGCEHcicVOVMorhufuWY5jyLusdedFMlqOUYqVdRkCILUSSp4lOPifVTiHdEjJHj0nPx+P/98CYmgFvXDfyVtaGDMT/MF2iNE6R/1qyAKzDDcahsDOQwGokRqkAvqHCjRFKBlVWODVAIa6mA5BYm1ZY6aAwGAuuEHkEDQVmqLg43mkphZkIgzu7QhyGAk7yj2tcHb4PRcngIIAtgKFZHgdHJmR7aue9MP9QwanT/uSXJ0kbBO7/xKvwzdG4QfXB8i7moIOAlXfcUXD0UPQ6NebpfmG+oYLIXmGQa8ckD4qzgfFmPTf/Cr1uFpFT3n1+Sv7iAkag8k6mtCQ57LQpTiNjuxr3TK7hK+wVXHoUuT0E4jrdt/wo593d5hJjlm98TMsyv4KPAo9GLDZx76cke2EwiumGgtchDR/XHdfkcEbepTcF8ng8CLoYCvs6KId0WwQeZRm+5+HNcYPJGwJxUpYgAgGFUztOYBlIXRau4ACwwc4raOShhDV5lDg4u0i6z0oYbaZ58hvnHYSlExz4cJgouAwKNk5gWtjxL/NGXgthWN0v/OWSNo7MgKGwPUgwsnf5QoKPk99ykcSgmHeLaQGvTR4rK5d3nNeSYOKcSlyN4CeD4BDGbFDgDAr/ZTTsjmBNcNwncXwMRzI50RwX3/pZEIaOZca67cdSYxuB06CHbvVs3ERRAQMov8Z84liYJs7i72Zyq3IIjCMKKTI9jAB29SWfi3Eo4KOJMujnlRelsqAGwRtCEcjhicBmG+FWnG/seDxTCIiDqduOeJVDQ0ERY/uHQDQ/OOVsB4lCIuOOJMYijiPkN8K4pOQ3/inFcQpG/jJLyKNB6jR8s4bZZHSNkOFfPg85fwE8E9z6CtPcYE7qmFflyNctb/yxtteUREE1DlzeUMM/jD+vUfKZU5KukZOFPonJA+e+yDPDZl4zTk5fKvKJtdjUz7GmaedTzfxnNrrti904gv1QpeJA4BoL+sY4uLECzXZ6TI3hqjXCBZWZVzk2ERMFC97EGQC8UpunfE6wo4vCBIGUR67txuIG6fYWQzImb4+PiXOeyfwjym3j5dmNJtObKRGySDyPZH4xnWh+vQ41ZgTs2jLF/5h3eQViDOP4QmqdupkvzjsEZ4duUzc/mFhZIDClJV4W9k2WIZChoQke6t0E5TY6Qczp9Nh3aRA0RZxe3RWKDbEiDaEqNgtsca7bhSCp5n8JLv841kgyHllJDUPSa5Hm/8gxZm7qIERMkwfruZmak3zoJw+Ag6NTr3k07YTsXYIcy7nAsMXwSk7+4xFHAe3xv/wkuzEMoxXigQeZCuJz7Eayec0NQpd5E/7z1Fre7VGz/HIk1UmP76KWF7gOfjacMR2km8mCKLAvJiP7/Mi1Wm6tboE4WGKkQtvwJaowcO9h4NqSgwrEwhTDYZKIGWKg2CB4MxT7IPFSnxg6Zj5kamQBIOzqgu7pRVBZCa84xQDMqNRm/b/qJYcWxzgV4GMbap79cjKTsl0vP0raIJ7GfDSvhizLZeJeV0E2jPf0ItfWBr+8HH5FBV8RaABbfhl4Dq8VV2D3hRngcU0WX7hJAtZy0IXvhoK6XSlzcffdcjyvevtrymsCZXMIOzsA30dQWckXEZjG7+gsgfkd0+rqpxtinivjp7YCAOOlLNF58RaYW28uh2xzC3T/AFITxkElElaIbkca+8nj7T2UzSLTuB1eURLJ0SNhvgaoxHhJrbZOlzeDKLNNn/HmuuMYBYcmyyRpS4aDts4YPhEBUYhcXT1ynT3wh1WjaOxo/liTwUFAmWejCiwTgVmArgmxNNww2AbEr/lrESxHrVm9nEqMgE1h2Pe4cB5XTV2WeYPTTQzcWNNARZP6t25B3fcvRNjSzjeVKcAzR+uggUSAcffdjbKjjkDU1Y1tl/wQfctXQ6XTmHj/PSidO9feCZapq8eXp34b6A8xMH4EDnzzDZlqK0SZPvStXotdN92K/vWbkQiBMKEQjBqGUXfchvI5s6ESKUuuzoXYcc896PjzY/CVB60AaN59CEUg8pHcdwom//lRBJXl0Fqj8ZfXYODVt6AVIZReOgJQNGksJtxwPVL7zoJXkoYC0Lt6PeouuADo6o2/dOor+KQQCe89TUiMqMHEv/4JRZMnQ/f1YdPFl6J32RdI7rcvZvz5T/BL5HB8pEA+gOwAepYtw/Zf/hp6Vyu8bIQoADCqBqNvvAHlBx8CryQFqLgnjjIDWLPf/ggSxRh2wTkY/uOfyq0rrJD9Wzbjy/MvxUDLLkz/0wOomDsPni83nJjZAYBwTxu2nnMOcvU7EIwYhkl/fgSpKZO5kbrDOSKEXR1Ye9A8BEVlGHPPLag86mjJJ9mk4UsJ/tdYWQKg+JILykXoWbcOu6+/Hj3rtgJhxFvbyoox4tqFqD7+aAQVFQKRYekowrZf/wrdL76BoooyTH7iUSSnTbc6mtvdgk0XXILcpq2g/fbFzD8/jGRxCdbMPRyqrQcRCJ7sRPXl5BEA8JdTQoy5/z6UHX204Avk2trR/vhT2P2HRxH1Z5CIgKi8GFUnnYDaH1+A5LjxDMF02sQvBCCzbhVabrwdXV+sA/Vl4fmAV1GG0ddfh/ThByNhPmBvjCgRNhx7HFTTLoRQKPvuGRh/7XUsT5EVN5YMdj/xNJrvvA8BAcFXp2PSQw8jqKwElELT449hz+33IqlhLx3g89z8Zd6qBYdjzN13AKXFAAhRdy+63n8PO375G1BXD7xMAF3EuI7//W0oPfwwIEhYHrMsxNaYzsHaE9OBx4bQ9i+WUU5BwBrhfHtjJG6KkNzqYrDIy1wQCeUMubl/hoDkSvJHNFRgl00PiwLk49GNQtTXB93QiURdL7y6Hqj6Lqj6Huj6blB9N3T9bkSdHWzFi0tQc8EFQFcfvE27sevWOxC2NLOyRCHqLrocakMbwrrtmHHzjVyvAsKODuz89S2o+/o5CN9dB9XYj9zObmB7L6IVO1H39e9g9x2LQZmM9QcqTUiqNFR9G/S2Tuj6HkT1HdD13cDWbmBrJ6IdrXw4W5QVHd1AYw5hXS/Q0A1vWzeC+j6oD7Zg20nfxc477kLU18cK2NONqL4dtKUbVN8LtTUDv64fqj4Df1sfvK19wNYOUMMeRL09UocC2jqRaOiGamm13zom8PVDuqcb6799FracdB4yyxoR1vUis6sHUVMvvM+3Y/tpl2DbhZci3NNu5QJw5xBu2QPa0o7dtz2Arn/+C3y1KsswGuiDv7Mbybou+BpyhChPoFCKoNvbkP1wPdTWPtDyJnQ+v8TyxtULAFCBD9raAtrejWxHp0wNjXLxqNOO2kwwsBTfpRBlcth5063YduzJ6H97DYLGLvg7euFtH4C3vg2tP1yIjcd8Dbldu0RP45E4tbYh2NwN3dgMZPk2IavXEUG1tiHY1oOguQV+FEGTAhpbQNs64G/rh6rrg6rvh27MQTUMgOp6obd1I7ulGVFvnxmGI7djFzYvOBa7f3Mv/PoBeNv7Qa0Z+Js70PWn57Dxa99C90cfWfmK+oFIY9e992Lbsd9Bzz9XIWzshW7JINzVC71lDxouugLbTjoNfV98ITxS/OcpRDuaEdb3wWvIonPRYlBfn0zXmcEKhP66ejQvug/B1i5E9d3w2nqBMBR9IPi9fUjWh6Ct3UBdK3RjO6i+E6q+G37DHoR72kGRDGJCQsONN2P7eT+Dv2UAqiWHsK0HUXMfaFMb6s76IbYvvFZ8lsLjvEGWRJpZl6NaNgh5MLMCaxVtH8PPkEGbaRdOeaUUX6phRJ2nlAYLMsN8Lk6MqzVtpgLeV+YUNw8SqYxtdyw4IDIQHBQAHx40ZVB21vGouvh0lF9yCiouORWVF3wbNRedg8TUqTxS8X1UzJuL2kvPhwoJ2XdXoOVvzyLb34eWvzyB3GcboMMMxi76DcoOOIC3c2cy6Hr9TbQ/8CSCXgJV+Cj55sGoPP+bqPjWYVDpEEE3sPt396Pjldf51iEIL7QGeR5UeSlKTz8S5T88DWWXnoqyS09DxcXfRPrk4+ClU0KlB08phPCgEyEqfnw2yi86FcVnHg2MLwM6B9Dxp2cwsHwlgx89HJVnHo+y849H+XnHoeT7RwJRP4Ac1PwpSH3/GKQvOgHps76OoLZGduorKHhQ2hdes7yUIugoQt1534P+9xcIekN4ZRrlZx+Bih+cjOJTDgdVENAbou/1j9D84APQA/2OBkQgRUigCMm+BHb98jcId+wUubGMEtpHUvlyL13cKQIAaQXd3YemK6+Bp1PwEwl42kfHy28ht52v32edcBRWKSiVgNI+fONXtvjwJEm5im1GfeAWorVGx9NPY889j8Pr8RB6GRR9bQ5Kvnci0t85EhhXgqg3B71+NzZ//UREbW0CB3x2HArKNxvpfYmXLD7ge9xQAoLcLkQoOeMUFH/veJR+7ygUnXYYiPpB0IjGppD+3rFIf+94lP/gDCQnjLXTofpLLwFt6YTKamBmBUp++A0UX/ANpE+Yg1xXG1DXju1X34Bs43aQ/AcQmh/+E1p/uxi6LYdsXwsqvjUXlZeciOqzj0E0zAN6+hGu3YnmX96AcEdzPEqWJqzAH2HycmXYcePNzFtpc1FfPzpefBVobIf2k1AqkJE5AzEzOQWC8vsxdvFvMeqmn2HUDZdj2BUXY9gVF6H0+COBogQIhP5Nm5B74V9I9HpQNSFqb78G+6z9AFVXXIgolYXfSeh46mX0frY8Tw340VgsI2KxK0KPcYspmKOCMsYzNqVgymw0yGiLiTO0gW83/V/vjnVuUyXn26fxNcWFZfniVb4ydfBdqgXP5kZhTdS9ciWtnfxVWpUcRwNrNhJlQ9JhjnQu5L8wJK0j/g6oJtI6pOzOnfTlCafRmuR4WjNmCnW88RatHDeDViUm0tpDD6MoMyD5I8q0NNPqqTNpbWoSrR8/m3rfeZ+ibI7h5kLq2/glrRw7jVZ4tbR8zv4UZjJ8s/BAhlruuJdWp8fQmnFzqGfZMi6XzZHO5SjKZSmKcqRDJibUETVechmtT8+g5TXjKBL4Opej7s8/o7WTZtGyolG064EHSedypKMswzOwsjn6LDGS1lZMp+bnnrVlOW9IpCOKurtpw9dOpjVFk2jdkcdQrrPTMrPt3/9Dy4tG0Yb0NFo9eRb1NzVSmM2RzmYpymVpYOsm2jBnHq1LTKFlxcMp29BEFPE3jaPuPvqPP4LWp2fQ2vRetLZkItV99zyKBgaItKaelStp4+SDaW16MnW8+z7fJi26wGyOqH97E60sG0arq2bSxoOPonXpibSmfCq1/n2J3IItf5r1JOrtpC8So2hVxd7UsmQJRUZ98nTE5I+Vx+SJMgO0rKSKVpZMpTVj9qX+5SspzGYol2N6+5q205qDFtDq5ERaWzSSWp/+G+lMluvO5WjLhRfT6uRkWjN6Bg2sXi06y7zMNe+ijfMW0JqiibThyOMo7Oxk/c+EFOVyFGYzlGlopPVBDa1PT6PN3zyd5Si8jqKIokhT96qVtLJ2Kq0umkIbDzmKwlyOojBLuTBLYWcn1V2xkJanxtGy9EhqvP02Jk5ryjQ20tqJe9PaxDRaUVRDXW/9k6KQYeswS7nWVmr6/sW0LjmB1qUnUfPtd0t7ZXmu22s/Wlc0ndaWTqEVqSn0ebqGejdvtTcd965fRyvH70VrUlNpbXoGrU1Pp63Hf4Nyu1tY97Wm7Q8+SBtKZ9Gq4lHSVnJEYZbbZhiSjkKRj6buZZ/T+jGzaG1qCm0+7usU9nSTjjRF2SzVXfcbWhZU0orUCNr4nbPtt77zBC2/ruUw9ifOGr8MWVwguKGwHq2d7/baXhVmesoWUmtCLgyRy2WRzWaRy+aQzWWRy2SRyWYxkOX4jPnLZJHNZJHJ5pDN5vg5w3miKOQpM0GmMzJVdqy9R0kePRD4brYwC02R3CUYxlZcAUr5CEaOxLDLL4CuLoFqARpOuQD+rgxyJRH2eu5ZqKDI9Cmgzm5QfSu0BpJzZ6F4wWHwEj6U70MFPtLTp2HcQ3di5sp/Y58n/gJP8ZesyCN2mAPwkIGW240j0tAUiRvA9EQKHgEKIaA8BDrkkVrgs/O9Zhi8ikoUq2IEA6H0YAFU4EMFAZQfwAt8eLofCoDneUCgoPwA8AP21yhmGilAO7en8HYCQuvTf0dSV6Iv5WHCEw8iNWYM/EQABAl4foDkxMkov+hcRKUpJKJi7HjoQehshv05PsH3eZpbtGAGoqxG+z8+we6//pU/egSNnEfQlJPPOFqtARSBclnsuXcx/EwxvKoUht18HfSMUfD7s+h4dgnCtrZ4uM+zbHhBEhoagTnFbW6tdnXSHf45znEQYeuttyGpyxEkAlRedRFS+82CHyQRBAkoP4HU6JGY8PA98GvTAKWx58mnQbmcHQ8QAPI8RAj5GzVmuqmIL83VBEUezBhbKYJKelBBAC+RgPI8ZEhDRxmWte9DBQl4fsJ+mzm7dCloIEBOZzHytuvg+z48L0DgJeCXl2HEzy/DmEW/wNQn7kfNUUcJ/RqZLdugegMoL0TFeaei5Mgj4XkJeEJbUF2N6p9fhlxlgBBJdL37IbK7Wxh/AkARvISH4lOOwEB6ACkMw45brwc0Qff2Yedfn0a0uweYPgLJSSPlw1bORcGKZ3YR5dAfZkC5HCKKkNURNDfS+B5VAF4qjahIAzqJnndWYuOxX8fOuxYBUQ7jbvgV9svswr492zH1mSehPB71x3Jm/kaaEIUaOowQRiGiKJK/EGGYQxhpRFojDCNEOkQYRgjDEJGOOD0MoSMtdwKa9Vxln81wltf8xJ/CONgxpyBEmDJ5MlKpNFKpFFLpFNKpNFLFxUin0yhOp1Gc4t90OoV0cRppeU6lUvKcRiqVxl133mVh8lRHXjlKps4Kvqew/dwfoP7wY7F1/vFomHcsts09GusPOQyUycXTLGKzVn7Ukag8+0SoIoLvpREGESbc/Vt4w6t5iKwAymbR++4HUCpAoqoStSd/A9zEXCSAyhNORHKffZCYuS8QeIDSUJqvaVfw4HX0Y9fFP0PD0d/A9gXHoX7eMdh28Fz0PvcyKMzZXiRUABBCqyKEHd3QbR3Ibd+JnbfciczGeoTIAqUpaN9zhunMdeIJLYjNC7cDc3bW5FXyj46vnOYhP9C15FV4AZAsUSj5yldtZ2OKEBTKDjwQQXECiBQGvtwCRBD/q4YiH7okgYrvfQc0pRKJnixaF/8F2Y2boUhBkQeNJPNO8FKK+Rz19qL17y9CeUl4E2pRteAwDPvuWQgDhYGPl6F/45eFDhawtmlAScfhGX0UK8RMke0dXILNPCcm+vugyYMOcig/+BDpHJhmI4/09L3gja4BfB8D6zZCh9kYdzDtFi871WNeM9/iEwEGe0UEpc00XcNTQZ4spTgAoP1vS1BEBFI5lBx6mKkV3DwVkqNHo/ZHP0XZqacidcD+QqFCx5N/hR7IQCOHUZddBuXztNzYJiiFYHgtkuNHwwOQa9gJ3d1tIWulhG8ZjFz4EyDKIfPcO8hsWIdc8y50P/4UvJISVHz7eIReFp5SALErAGbBRQEekiimItTPPwZNB83HjkOOQv0Bh2LzgXPRfMciQPiSnjETtVddhqgig8AvApbvRPOv78fK0vHYetZZ6Pt0GdDPHbthkMsyIuAPDz2E7573XZx99tk4++xzcOZZZ+HMM8/EmWedhbPPPhfnnH02zj77bJxzzjk49+xzcPbZZ+Gss8/GWWefjXPPPRfnfvc8/OHhhxFp9lvG9lXqgxloxfVaP14sNQXAw4yZe2P2fvth3698BbNnzcas2bMwe/Zs7D1rX+y9z77YZ9Zs7DNrFvadtR/2nTUL+86ezXln74dZs7+CfWbti5n77I2SUv7amIVPQq0NGkAEIImorh2ZrS3IbmpF/5adyG1uAVra4EXxvihmGvv//PGjgOJyeMqHB0L6wP0BL7ANBL4PLxnwZy19gjdxSuw7sLiwMhmrzCMLUVLSUARoSiLcvBsDa5rQt3E7wk07EG1rhe4aMIMSQG7f19pD0Odh/fDJWDt8GtZP+ir6Hn8dSZVG0ZTRKJ0/Xzoe98sTLAftw4l3ekdTAQEeiHtPEKDZqwoAfm8GkdLIUAiVLpY6Yp4rNnHIgZ3iSsmNH0oBKgD5ETwfCIbXYuwjDyGbBrChCXW/+g3C9na511yucXeuQtKRRtszLyDY2Q+vIoWxt94A+AmUzT8MwYgqYHcG0Zp10Nms5bdZ8GKp8cZdxpHPJ3Nga2Q7MrBwTNmACNqL4IOQLKtwhMnwFRT8VAoIfHikQK2d/E0P49AC4MtQMp4BiY9JdFQZ1QCDJoLsexU/NnzOKgAsVwTfvq5egBSiXAhPZgoE9tEyXeJzNMNOgDvBskp4GgijLIIxY3i4YvVM6CQNrQgRRTLriC/U9pUCaSDpBRh/ySUYSHSD/HLsuuUe1N20CLnWDLxp41Fx5JHwZM8hGR7Llh4FAF4ECqqR2dqJTEMvom3tCBs6ETa2guSTkUbNai+6FOOffxR631roCkIyXYVUUIvMaxuw9ZizsPWss6H7+vibKuRePsCINze34NNPPsFHSz/CRx8txccff4xPP/0Un378CZYu/QgffWT+PsSHH32EpR9/jI+XLsXSjzj/h++/j/qt2+S7P8wjo0rKaUL229RxkiFcYhTw1ltvYvmyz7By2XJ88cUX+GLFCqxYvhyrV36BNau+wMovlmPlihVY9cVyrPxiBVauWI5VK5bjixXLsGLFCqz64gusWbUKl192uW2gtrrYLPNnEuFBexGG/fFmjHz+Dxj9wkMYu+SPGPHiIxj3tyd4oCObjBWxgma31qPj4b/B6x+ASmoUIYWG8y9G2N4BeGaZ3EPR5MkgzwNyhL6lH/E1P0abxXJFnV0I9+xBuGcPfzlTpmbkKURE0CmN4ff/BmOXPIQxSx7BiBcfxagX/4ribywAfM6sVDxKUSAkayageNhYBDWj4A0rgbdvLcY+8QiS06eJ0vM+LcDZ/BtxQ9TgRmlFZvRdvivFHYGST/tywynaayK8iBN1Z6c0YmYyKSG3rx8+EbRWSBTL5x2VwCKfR0JegIqv7osxv/kZKBVAv7sKXc++Cm8glKNyMnYWJqlciNanHwOpNKJkCL+8Crn6ep56HjALCj5a7n0IUfN2OyIzxkIrQc7pjUgW2ljWxoCz0WNXg8AoLgWFIbQuwsCOBibVgBG2RV1doEwOmgJ4Y4bD87ljlAk2FIXw5GNEpiApBa0JWgMqithomT5C9NZ0OabNmO2T1oCAR4jB2NEIoeD5AcJdu0QIRiAKlAsRtnci19oG3T8AJY2z9JCDQAn+YFK4ZZPobD5xpBV0NgsfhMhXfKO5x7qUQQgihTCThSoqQfVPL0Y4MID2V96CfuMdFJWlMeLCcxCMGo6ccUnJKQ3WRbnmS/nIRJ0Y9ffFGLXkftS88BBqX/wTRi/5K2q+/wM29iRXZ0GjYt587PPZp5j66f9g3LN3wZtZiqDcg09J5D7dit533rUGyQSmSuHGG2/Ali1b0NjYgKaGejQ1NaKhoR4NjXVobGrkv8ZGTm9qQmNDg41raGxAQ2M9brv9dh7omLYTC8Ow3HweyJ2IyJMCW2WF+CPgchiO34zYzfSVKTE9Nk+JnDRn53hs74R6JViQBinAoxxKvzoLlQsWoGLBESiffzjKFxyG0rmHwk/xiqrRtqitDTtuuRW0ZQd0eYiqhZeCUh7CVfXY9dvf8fccoKGUB3/yJIRFGgNdneh+418I29t5BAD+upfu68OG7/0Am048FV+eeRZC2xBY+Nr3QMkipPbZG6UL5qP0iPkoO2I+yo5YgOSYMeyXU8JPTfA8IApyGPvSQ6h96SGMf/mPmPCvZzH1X68hvd++UEq6cdY3fhTDFsGDIh+ekptPjAwNy4T3BMVbG8W4KU+h/NzvIEI/Ut2EjmefBzmruYqAsKsTO++5D2jvg+f1YNRFF0IlAsZER4g0EGoRdnEZKk49DUX7jofuH0DnX14AdfZCeQGof8BOLQmE/mXLEC7bwiPX9l7UH3cithy6AE0nnIrs25/A8wiZul3oXbURlMuJCJmSULEflYzBF5tvz+i6DUUZPWN+DDvjOyCPQFlgx62/RdTZbmVARNDZDLrffRe5pg5onUHxIQfCS7CH0SPA8xOIlIYXBsi27wFFPJpSBOj2DqCtB6QIfnEFf0NGOl1jgAkAEft4RS3FPSAyVQqjrvkFvKSHIq8ETb/6Lai/V4aPGjoXoX/rVmw89Tv48uTTsOeJJ+zQzd97H0QpwFclaPztIuiObhmdyT67bBZ9GzdBbecN3aVHHIKguhpQiuWtAyhkkR3oA3xgwq+ug1cFFGXKQD0K3tSRqDzh64BWCJQCEEFFjkOIiHfEaYLysig/agHKFyxAxYIFqDhiPsqPWICiaVMBmQH0rVuHrvc/RufSj5DbswdF48aj7OhjMP0/H2PE4/cgRB/8zgHsujWeKsc67dgWsRvKE+ujlDiDHMvDO/UlLf71PB+e70HJN5gpHkzblkNm5Gf1iiTRCE1SyCCVhyVDJHBrjSc/cRbAwMlPgxR33qR3UexwJYXcjlZkGhsx0NCITNN25BqakN3ehFxvj9SvEfX3YfdjT6H/tfcRpZIYdv0vUfm904FDp0MFRWh/7O/o+WIVCOwa80pKkDhmLjQR+r6ow/brbkT/mnXINjQiu3Ez2v/+IvRH60ArGlE8fBR/OAkQs8G+P0QRorY25JqakGtoQtjQiFxDI3J79shHdoTTioUTJYGSQw5C2cEHoeygA1E8Yyb8snLb+zicYh5IDH+FzICLN/lyvviqHiMrO11SCsMvvABhTRq6X2Pn9beh4+/PI7PpS2QaGtC3cjX23HYHcu+tgc5peHuNg7f3NMDnXU8EzVMxGT55AIKxozHqztughpfDQ4JHxPyPVS4ohe233wOlShBWJJGoHQadKgfKqhGm0tBlxdDFRVA6he3X/xZhR5fohalHwUME3dGBXGMjMo0NyDQ0ItPYhLCz06pRnjoRY5ycMhGpg/aFn8lAr2jCzjt/j4H165Hd3oTM5i1of/UfaPrZr4A9A1CVwJhrroFKJIXZCsUHH4RQ5aAGNJp/+Rt0L12KTEMDBjasQ/O9v4fe3YfQ85A64RioZLw5Vyn5CBvA14s7Sm+MIgTN4ul7IRoWACB0Pvsqmu9ejMyGDehvaET/qpWo/9HPQUvXw9u4A6QC5jwBxRMnIrHfBFDCQ8+/PsWum27GwOrVyDY0YqCuDp1v/gutP12IqDsCVfioOPYoeKWljBIYQUVKvMcElUxg2E8uxYDfCUr7mHDrTUgMr+U2YpTS6iXzl3sZDz4pZBobkWlsRK6xAWFDA3INDQjb2kEUAaTR8sILaDz9bNQddToazr8UfcuWI9tQh8z69ej519sIwgSiZAB/1Eg723GDbXIWD0fuzlCR3C0wNhZ58LjzzCtmMys419iToZFMeX7gNBJGcrz0CYY1TnX85oIwuQniW2IqYgyc0Lt6JRpOvgh6xx4EE2qgipOiRAqKInhJH8PvugXlh88HRVn0fvI56s+9FNTciaLjDsTEhxcjOWIk+jdvwubjToXf0g9v9hhMfu0FJKtrQFGEgYYGbP76KVB13fCSCajaEqiKElBvP8JdnVDZCIkJVZjw4pNIzZgJeIDOZrHnwT+gZeFd8BJpqJHl8NJJaPHVABq090RMffhh+GVlgCY0/PCH6H/yHWTSA5i1p56/RSz0Wv7JANawgcAjHSiFZUENSoqHo+avv8Wwb50iU2OTVyHq68WWb5+D7NurERw6BdNefg5eWQUUAE0Rdj/yZ7T+6m6gJwed1AhG1UClioGOTujdffzVu3HlmPL800jtPR3KT0ApIOrvx/KqySiuGIkRz96LmgXzAVLQ/b3Y/fAf0XrLwwgGFDRlMH7JQyg55mggESCztQ6bZx4Ir2gYqn59Ecq/8XX4oi2Ago5y2HXj75B9YxkorTD541dRNHUqfyM014+VZZOR8iuAkUmgrAKsbryaXn3JDzD8sktEGw2zmE8Enmpl1q3HtjO/h2hzK5BMIhiWgi4rA2UyCHd3wO8hUAlh2GVnYfg1C+V0DQ8do75ubDzqeKgvWqD8ALpSQdVWAb19oNYBUH8IzKzE9LdeRzBiuCDAcldQyO7YifUTZyGZqEHya/thypK/y5FKJxCh6+230fi9y6FaCSH1IzVxBHRRArp7AFFjG1RJERJzZ2LSow8hMXKkbV+ZjRux6eQzENT3IfRyKBpZDV1eDIoiYNce6K4IujKF2qsvQu0lF8IrLbV1r957NhL1WQTHzcCU55fwqnZnN76cPx8e+Zj24dvwKyrQv2ULtn3zPGBLM1KH74UJTz+GYFgtCIQdf/wjeq58AJTpAfYeAwWKXQAglBx+CEb87rfwilMYaKjDtm+fg3D9biit4dWm4FdVwe/rx0BDGzwUAePTmPTy00jPnMl8dOwc88qYCbY7YgEKrI15ll9jwIYIZFwzyLc5XjxyiLMCMmw3z/mocZCRQX4KvxmUzIt5ZoLcQ+3OrzigtZ8BFWUR7mxGbnMTcpsakd1Sj3BzIzKbGxB1dEKRRrZpB+qu+AXC5hZ4k6ox6rpfIjFiBEBAauo0jPvdbxClCdkv1qPuFz9nfAMPRWPHYPJzT6P4hEOAiiTCnXuQWd+AqK4ZKqmQmDMR4x5ZjKLp0+yZRUCBBnJA2gdUhLC5DZltOxBu2Y5wYwPCL+ugtrcAOdkVD954qxNZUEJ4qQZP3ZwfloGJIQICjSjI5gmdn+U90ogQQQchtHyRi+VFUMpD7Q++j2F3XIvEPuOAhA9dtxu5DY3I7moHSgIULZiNKX/7C1Izp0MFSev9VVAIijR0URaBJ3UqBb+4BNXnnIXU/NmIUhq5hAZlM1aW7U89Bd8PkAt6UHbyiSjeeyZS8pfeeyZKZs1G+SknIazyEEV92H7fg9ADA9xxaIAShCgZQrf2IrulEXprE8ItO5Db0gTd1m4mGqIrhk/CM6VQNGM6Jv39MSSP3AeqsgjZHW2gjfWgup0INODPqMXwX/8Uw6+6CqqkWLglQ4N0MaY8+QRw2HToEg9R+wCijTsQNu5BlASSR+6NiU88iqCmWqZWpkXE+qFTHqKiHHSCR3dOCwBk5F525BEY98h9SB40CYmKBMKGZmB9I/TOdqhhKfjz98aE+25HYuRIW1JBIbXXdEz468NIHDoNXlGA3PbdyG1sgt68HVE2C3/v0Rh9/U9Qe9H58EpLDFMAEHRRAmFaQ5FsI4JCUFKM0fcswriHF9vjflAKFLAMeBQX06CUgvb7ECWJ5bJ1O3JbdyDa2oRwSxMyTduBMMdymDARkx77E0pPPxLBhBroPd3IrNuCgYYWeMNL4R88EZMefQDp6XtJvVyPyy1RuXwWmgSgIIHj4rZaEMi0jNg9Y0aMSmse+fEb5zarYLYq0TpuCKZqs0ojJlL0yEzdTDk7mmT+AvGsMC+QIoStreh+731gIMNbL/iELzc+ACERihccitT48chsb0L3P/8NRYTUjL1QfMAB8JJFjL8CdG8vOl96FTrSiLL9GHH+D3ixg3hvUtTeif61a5DZsMnSFwyrQuncuQiGj4AKeNpBAKA1Mhu/RP+a9bzYpjVP+6IIyEXsOKqpQsUxx0ClUgBpdH34AXRTM7QXoeaMM0UKDkzhF+uoCF/8ewDQ+uhfoZJFSB96ENJTJouDXQQNAmWz6Hj7beg9XVC1lag64gh4ySQzUxRBhyHCXTvR/eHH0B2dUJq9vInx41C8/1e5MQdBLA0CKMqhfcnzUEVpFB90IIpGj+Z0Yj9TdnMdBlauhg5zSB00B6nxE6A8D53vvA3dsBNRQKg5+xymJU+xCLk9bej94APo/ix0SQpVxx8PP5kARRptf38OgZ/g77bE0w8QEYr2nYHi2bPzZhx5CiQNlTQh19aGzNq1yHy5iRlNAEqKUTZvHhKjR0EVJWMownuITLOtreh9931EbR3wiHnljRyO0kMPEV7xp1GNAhs/q+7rR8crr8L3A6hRw1F+2Lz4qkyLZ9zoctu3o/+LFcjtaOE9jZ5CYsoUFM3aG8naWuadlQlXRtDIbd+Jvo+W8jQT3KlSWTHK5h3CPudEkZBl9ATo+Oeb0L39CErLUHbMkfA8X2QZr7ISAWFXB3reeQ/Un4FfU4XSww+Dl+az5z0b1iG7Yh1vR3IMP89GNLwRNSidNw9eMmk8EQjb2lj3PlsGlclAKR+pfWYiOXE8kkanHIMVS9zhr9gcM3uI0wXxgvJwYFh4hkY7SxN5A1CatL1S0xTIm+aKQXOx4wYaR5LUOhQppiperXPSbUMWSLZr58D+P+7aC5IAiJF1DKlZfQNkOkScyKeRyH4GyZazfOCImFEOg8yjKWTwiqnmBkkAiKA8rlexu9pyQIGPRLkckiSJivlhIlng8iyLTjZd6GYMAEX8PeF4Os09DhF7dTVRvKfJrU+mFS6TmQVxQ/XEqWyNhIAxwUxKOPCzZ/imOIcksdE2nagk5cvCvJte04Bw+BYTDYiTXSFff/KqNvnt7CbudSwu5DQzEtiGl1I8fgDXq2Ke2IpcOvILcH0OjnGqiY8LcyM1QdJkgcXuzyD+h79k6EJz2pnwHEKS9sQkG7QFZybD4GhUQTSjYPDCjxJh4XCiYYk1V8oc4eVLFHgow/jF/MkD4jxblLh8QYmCnBJvpGgjGCfJXFimYKuLoGKYL7UoKaiEiXnTQYlUVEAHAIDj2fCxYtlsAlApVlwWWj6Wtj4nUhl8BK5XWE6J5RHuc91sfCwcHgG7fRhgmGQaXoxGPq6mQdogFCkVcxuwCwYSa0cJbhEyz4aPXNKhn0Vp/RU2nf+UEaAnW2UMY6UqwxZPGQJM3bJSGldk4SqAN7ma0YfB1ZE5Y2bAmWdlV+PYgHCsFLe8iHluqjUx/EwK3FkUKK4NMnUx9CjJyK4FBy4kjp8sPoBFKK43RpdxAC9esBEqREDACR/lVeiKjVt+iOtlPvE2Ghi5i1vE1iYwjH4QRNDW8IlcLK6ChylQGKSYC9sGs4dRulezT9CshJrsynSIks7tR+ixC2SITY/izdVQvFLrITbSVu/yQkGciNg8KyA25BJnBjiGR/m6JbWIrCx0h7fOfX5OTWRKuVEybGTNtu8MxIKTAlJMLJcyLHHan0VXiglOg5C0OYViImWH35aygnrjQswgtkuSxyIwRDmpw8bHxNm4/D5IjKGB6ew/zMPNZDJCkvhBGBi8ZJsCHN7xYlEsk1hkRnyWMGugLaa2PqN2Ln38aEIeta7cBa4lS3gRvxt6JFGxssdcM/g6dTuvTIf4Rg3PwIUsmjYpTjOM4HQz2nXEZioQ9lj5WXblExXjbGgHj/TyaHNzcDrns5g6dMVVGJqMGJleSba4meACiBlAps3AbbNusJZAdN7J56AXv8YabdwNeTIQHnOeWNklp/BQoMkKLOcDQxdlFPQ5uLMnit8NHAPXDIry25yDNUkd/JPPMYdHBWRbPtjv9nKIs7gFrA/GIuOkmWd5sEQJ4dZgGibaRhrXlWe/TF7n1a0gVmoJBUYBMFmZLAIbBgYbY4c8DGIEBtGWR9fQ+k3yj4XvGlxLrqi2lC/kn2WxxMcKZ5QABWbXZhzCsAviTv2F7cAUdV+saRys0/ELcQbGN2aOgtBIEOPiMMoaaNg4tgP5Sp2/Qlrge7Z0mWfhtWBNtkpjOAuY7D6y4kuMtUR5VZhGbgqZkS/XEdPGjdCMWE28Y8YEBBc3OEuc/Jp4W3yIHIwDP5gsg1aUTchT0hg2WTwKghgoF3dLomv44iz8YGDFbBpEk9sEGHe30FD0OSxw7EmsV3ERzhYTxklWI2JYeYXidvj/AWGoUxKDnq6pAAAAAElFTkSuQmCC;" vertex="1" parent="1">
          <mxGeometry x="190" y="250" width="319" height="60" as="geometry" />
        </mxCell>
        <mxCell id="g-WHrcYlsY0I_rbneyq0-11" value="" style="endArrow=classic;startArrow=classic;html=1;rounded=0;entryX=0.5;entryY=1;entryDx=0;entryDy=0;exitX=0.192;exitY=0.008;exitDx=0;exitDy=0;exitPerimeter=0;" edge="1" parent="1" source="g-WHrcYlsY0I_rbneyq0-7" target="g-WHrcYlsY0I_rbneyq0-1">
          <mxGeometry width="50" height="50" relative="1" as="geometry">
            <mxPoint x="230" y="240" as="sourcePoint" />
            <mxPoint x="280" y="190" as="targetPoint" />
          </mxGeometry>
        </mxCell>
        <mxCell id="g-WHrcYlsY0I_rbneyq0-13" value="" style="endArrow=classic;startArrow=classic;html=1;rounded=0;exitX=0.5;exitY=1;exitDx=0;exitDy=0;entryX=0.805;entryY=0;entryDx=0;entryDy=0;entryPerimeter=0;" edge="1" parent="1" source="g-WHrcYlsY0I_rbneyq0-2" target="g-WHrcYlsY0I_rbneyq0-7">
          <mxGeometry width="50" height="50" relative="1" as="geometry">
            <mxPoint x="243" y="251" as="sourcePoint" />
            <mxPoint x="640" y="260" as="targetPoint" />
          </mxGeometry>
        </mxCell>
        <mxCell id="g-WHrcYlsY0I_rbneyq0-14" value="" style="endArrow=classic;startArrow=classic;html=1;rounded=0;exitX=0.5;exitY=0;exitDx=0;exitDy=0;entryX=0.197;entryY=1;entryDx=0;entryDy=0;entryPerimeter=0;" edge="1" parent="1" source="g-WHrcYlsY0I_rbneyq0-4" target="g-WHrcYlsY0I_rbneyq0-7">
          <mxGeometry width="50" height="50" relative="1" as="geometry">
            <mxPoint x="475" y="220" as="sourcePoint" />
            <mxPoint x="476" y="250" as="targetPoint" />
          </mxGeometry>
        </mxCell>
        <mxCell id="g-WHrcYlsY0I_rbneyq0-15" value="" style="endArrow=classic;startArrow=classic;html=1;rounded=0;exitX=0.5;exitY=0;exitDx=0;exitDy=0;entryX=0.803;entryY=1;entryDx=0;entryDy=0;entryPerimeter=0;" edge="1" parent="1" source="g-WHrcYlsY0I_rbneyq0-5" target="g-WHrcYlsY0I_rbneyq0-7">
          <mxGeometry width="50" height="50" relative="1" as="geometry">
            <mxPoint x="245" y="400" as="sourcePoint" />
            <mxPoint x="245" y="370" as="targetPoint" />
          </mxGeometry>
        </mxCell>
      </root>
    </mxGraphModel>
  </diagram>
</mxfile>
